<svg version="1.1" id="Layer_1" xmlns="http://www.w3.org/2000/svg" xmlns:xlink="http://www.w3.org/1999/xlink" x="0px" y="0px"
	 width="48" height="48" viewBox="0 0 192 192" enable-background="new 0 0 192 192" xml:space="preserve">
<path fill="#120E0B" opacity="1.000000" stroke="none" 
	d="
M170.936371,69.121597 
	C175.089127,65.595604 179.372498,66.580750 183.348907,69.060280 
	C187.468994,71.629402 189.662704,75.486603 188.726822,80.506645 
	C187.744995,85.773048 185.505524,90.377029 180.480881,92.945450 
	C177.549057,94.444092 176.852951,96.564560 176.875916,99.790245 
	C177.086288,129.332535 164.593307,152.422882 140.525330,169.186478 
	C132.745148,174.605438 124.006195,178.425919 114.394188,180.948746 
	C112.286484,181.845215 110.396935,182.150711 108.265091,182.813080 
	C107.984886,183.039185 107.999474,182.999695 108.019852,183.004959 
	C107.332527,183.695206 106.406631,183.416428 105.321251,183.766495 
	C100.900757,184.057663 96.707832,183.681656 92.183258,184.814377 
	C88.900864,184.090988 85.976524,184.692749 82.683594,184.453888 
	C80.826347,183.595367 80.660072,182.307327 81.187134,180.470428 
	C85.284584,177.618790 89.570114,179.296600 93.638222,179.105270 
	C117.688019,177.974213 137.499741,168.358536 153.649918,150.550476 
	C157.876038,145.890503 161.316971,140.925995 164.208420,135.415970 
	C165.516678,132.922943 165.929016,130.459229 165.766907,127.338272 
	C169.091614,118.331635 171.927399,109.676971 170.867386,99.915131 
	C169.720200,97.684433 168.866440,95.780586 168.601257,93.283279 
	C168.672562,92.648369 168.724808,92.399147 168.966721,91.822113 
	C171.303650,89.484764 174.481659,92.209145 176.859894,89.708038 
	C180.767593,85.681404 184.079941,81.743408 180.860748,75.732788 
	C180.307251,75.171974 179.969543,74.872192 179.337570,74.388573 
	C178.863174,74.063950 178.671371,73.936279 178.214752,73.585945 
	C176.742142,70.873009 174.448990,70.469666 171.745331,70.127113 
	C171.305145,69.793167 171.159378,69.621696 170.936371,69.121597 
z"/>
<path fill="#3B3732" opacity="1.000000" stroke="none" 
	d="
M27.179668,153.396545 
	C26.333370,152.286942 25.721422,151.438385 24.936028,150.326202 
	C22.250303,147.988602 19.205215,146.263733 19.848488,141.883148 
	C21.638746,139.820190 23.566490,139.472443 25.472044,140.668213 
	C32.698471,145.202927 40.913322,147.728287 48.256878,151.992813 
	C50.542213,153.319977 52.733814,154.887177 54.582153,157.347961 
	C55.458298,158.582504 56.222317,159.412613 57.690285,160.015411 
	C66.959297,161.553040 76.091927,160.758942 85.295502,163.200150 
	C86.941154,165.705841 86.631462,167.688782 84.493484,169.738815 
	C80.751282,172.156082 77.038696,170.713943 73.121689,171.074203 
	C71.419312,171.654816 70.570244,172.700836 69.545525,174.103729 
	C69.154549,174.606186 68.982994,174.801743 68.502304,175.251984 
	C65.946022,176.617676 63.909924,175.634674 61.877346,174.832123 
	C54.413475,171.884995 47.177254,168.470154 40.451973,164.062637 
	C39.295486,163.304733 38.142643,162.774506 36.379051,162.620209 
	C35.459393,162.473221 34.971561,162.300705 34.198650,161.844727 
	C32.473473,161.103424 31.880318,159.672729 30.519756,158.555267 
	C28.849970,157.048340 27.690031,155.622360 27.179668,153.396545 
z"/>
<path fill="#0E0B07" opacity="1.000000" stroke="none" 
	d="
M20.863907,141.721802 
	C21.999830,144.539780 23.277048,146.978287 24.658421,149.739685 
	C20.883867,150.040878 18.758785,147.655380 17.203526,144.478806 
	C11.663532,133.163513 8.825502,121.532158 8.607691,108.616768 
	C8.342197,92.873909 13.006873,79.313408 20.853701,66.306999 
	C21.276968,65.605415 21.911068,65.031036 22.706156,64.181023 
	C25.053406,64.942696 24.503159,66.828773 24.531830,68.938087 
	C24.357576,71.235641 25.129332,73.207855 23.801338,75.337738 
	C23.366697,76.396812 23.043676,77.079887 22.555798,78.082260 
	C22.000370,78.994934 21.644213,79.605812 21.200680,80.567856 
	C20.616106,82.033798 19.493711,82.567635 18.562412,83.740799 
	C17.200846,85.900215 16.234455,87.826965 16.494495,90.516281 
	C12.882568,106.762856 14.062404,122.177010 20.766068,137.088440 
	C21.371555,138.435272 21.981977,139.866852 20.863907,141.721802 
z"/>
<path fill="#13100D" opacity="1.000000" stroke="none" 
	d="
M23.416218,62.285538 
	C22.068590,53.640728 19.461210,45.339954 22.299417,36.829529 
	C23.785284,32.374126 25.425144,28.083378 28.837923,24.648661 
	C35.915749,17.525330 44.802055,17.163578 52.306160,23.906866 
	C55.143795,26.456806 57.804485,29.203655 60.861336,32.003326 
	C62.188354,33.181568 63.934368,32.451099 65.075150,34.043495 
	C65.978142,36.728340 65.052017,38.211796 62.508991,39.200321 
	C58.971741,40.707542 57.038464,39.754513 55.375786,36.640472 
	C53.105621,32.388660 49.948025,28.769011 44.736843,27.077095 
	C41.539047,24.220669 38.606022,22.414724 34.578678,25.043056 
	C32.345333,26.500584 30.725002,28.156532 30.606331,30.907173 
	C30.519939,32.909626 30.355675,34.883530 29.377373,37.074417 
	C28.960037,37.816742 28.726576,38.242054 28.380667,39.018120 
	C27.630581,41.251225 25.313173,42.672306 26.729067,45.500046 
	C25.743639,51.219326 28.612852,56.511238 26.642075,62.163933 
	C25.495014,62.958645 24.639507,62.963539 23.416218,62.285538 
z"/>
<path fill="#0C0A09" opacity="1.000000" stroke="none" 
	d="
M34.760269,159.792480 
	C35.180679,160.263153 35.400185,160.489243 35.816219,160.852417 
	C44.401817,166.147385 52.602207,171.614899 62.073738,174.821091 
	C66.658714,176.373138 71.378311,177.074127 76.034325,178.171021 
	C78.034454,178.642242 80.321999,178.348602 81.858887,180.744263 
	C82.022636,181.902481 82.080658,182.644104 82.060760,183.601532 
	C81.669319,184.318451 81.219582,184.530029 80.302185,184.223862 
	C79.970734,183.995605 79.540939,184.037521 79.325745,184.055115 
	C77.979279,184.089554 76.941139,183.557495 75.486145,183.540970 
	C74.518913,183.789429 73.878647,183.981949 72.868744,184.032715 
	C71.883858,183.789246 71.233856,183.540161 70.351974,183.169067 
	C68.855194,181.761734 67.111649,181.820999 65.246017,181.207123 
	C64.958092,180.999847 65.002609,180.987152 65.014801,181.006836 
	C63.890030,180.213028 62.430222,180.314133 60.896343,179.604401 
	C59.881924,179.494339 59.196453,179.515244 58.241081,179.210022 
	C57.964413,179.008163 58.009506,178.984207 58.008476,179.009720 
	C55.806026,176.961746 52.577709,177.008057 49.881763,175.120941 
	C46.911667,173.430115 44.277637,171.880035 41.344070,170.174820 
	C40.819683,169.777420 40.581764,169.548782 40.153469,169.160950 
	C39.976158,168.988159 40.017708,168.991287 40.011093,169.011047 
	C39.342525,168.193329 38.370518,167.831177 37.216339,167.188293 
	C36.970940,167.004501 37.006794,166.981659 37.008659,167.002838 
	C36.787483,166.788361 36.560196,166.556885 36.153412,166.160767 
	C35.978153,165.991974 36.019749,165.990387 36.009895,166.008728 
	C35.474224,165.470734 34.929127,164.933472 34.178108,164.196396 
	C33.970325,163.998413 34.019245,163.996216 34.033138,164.016373 
	C33.603851,163.591324 33.006165,163.511047 32.202560,163.179062 
	C31.965054,163.001984 32.012913,162.979996 32.012062,163.006317 
	C31.790930,162.792175 31.563736,162.558411 31.150661,162.164795 
	C30.971691,161.998199 31.013609,161.995102 31.002129,162.012711 
	C30.358759,161.068451 29.728699,160.104950 28.416067,159.313843 
	C27.431812,157.409424 26.112413,155.823715 26.892071,153.444611 
	C28.205511,154.216797 29.465700,155.298111 30.948200,156.602966 
	C32.070312,158.015625 33.705193,158.298523 34.760269,159.792480 
z"/>
<path fill="#16120F" opacity="1.000000" stroke="none" 
	d="
M117.936127,28.513000 
	C122.805664,13.884707 135.888382,5.067113 148.607239,7.922500 
	C149.523193,8.627448 149.909515,9.235833 149.888794,10.376011 
	C146.701965,12.666420 142.980362,12.487364 139.592010,13.522379 
	C137.622986,14.123841 135.905289,14.846007 134.061859,16.287361 
	C129.404282,19.152559 125.493607,22.254803 123.342392,27.567652 
	C121.626900,29.555025 120.406982,32.665573 117.936127,28.513000 
z"/>
<path fill="#34302B" opacity="1.000000" stroke="none" 
	d="
M117.592285,28.086224 
	C119.717079,30.228968 120.280891,28.061153 121.388153,27.077621 
	C123.053833,26.057089 124.276581,26.601809 125.724541,27.925756 
	C126.429443,28.670334 126.752350,29.160597 127.120049,30.131618 
	C127.229683,31.193913 127.081474,31.778488 126.465584,32.646484 
	C124.487801,34.000687 122.596802,33.818436 120.983322,33.320580 
	C108.390564,29.434912 95.605904,28.586779 82.597404,30.473595 
	C81.621231,30.615185 80.611664,30.499210 79.193115,30.291023 
	C77.643188,29.222412 77.079628,28.337168 79.315071,27.531036 
	C90.424171,24.365158 101.103539,25.139154 111.801506,27.379349 
	C113.561844,27.747971 115.380661,27.837351 117.592285,28.086224 
z"/>
<path fill="#120E0B" opacity="1.000000" stroke="none" 
	d="
M155.777985,43.706406 
	C153.574234,47.715111 154.057526,50.734478 157.314911,54.020790 
	C160.397400,57.130653 162.748108,60.994465 165.236023,64.652260 
	C166.373627,66.324799 167.473282,67.889389 169.694641,68.846497 
	C170.410172,69.440842 170.742737,69.936287 171.063675,70.931351 
	C171.039871,72.704849 170.362106,73.633713 168.775604,74.356033 
	C167.488922,74.448143 166.630814,74.399673 165.483612,73.828278 
	C161.393204,68.741936 157.498383,63.942833 155.276230,58.152782 
	C153.965881,54.738518 149.797195,54.289463 148.486588,50.628754 
	C148.449036,47.823311 150.905365,46.556778 151.316711,43.931709 
	C151.494125,42.534847 151.820343,41.599262 152.885284,40.639412 
	C153.445633,40.367477 153.688919,40.304382 154.304016,40.285522 
	C155.126938,40.548965 155.480164,40.870895 155.769989,41.672451 
	C155.741913,42.492344 155.655823,42.958118 155.777985,43.706406 
z"/>
<path fill="#120E0B" opacity="1.000000" stroke="none" 
	d="
M148.816528,11.387480 
	C148.975876,10.328209 148.975220,9.586432 148.968994,8.476831 
	C149.146240,8.098619 149.329071,8.088231 149.786499,8.069645 
	C150.215759,8.215065 150.370422,8.368684 150.750900,8.758793 
	C153.926224,11.229218 156.776077,13.545214 157.916870,17.674751 
	C157.261261,21.660595 159.516708,25.406294 157.320129,29.298294 
	C156.522919,29.839987 155.988876,29.932096 155.037994,29.712984 
	C152.640244,26.105104 153.476334,21.721014 150.807861,18.079786 
	C150.020187,15.711098 149.523911,13.648215 148.816528,11.387480 
z"/>
<path fill="#15120F" opacity="1.000000" stroke="none" 
	d="
M23.039751,62.335335 
	C23.772995,62.005852 24.485109,62.002098 25.554165,61.997459 
	C29.135962,63.007862 33.233582,69.778831 32.454647,72.829735 
	C32.147354,74.033333 31.404001,74.885826 30.226030,75.296440 
	C28.435301,75.920670 26.923027,75.140785 25.664274,74.049561 
	C24.583824,73.112900 24.646980,71.388184 23.259632,70.076050 
	C22.951809,68.133659 22.968700,66.467644 22.975439,64.383118 
	C22.983065,63.530094 23.000843,63.095581 23.039751,62.335335 
z"/>
<path fill="#2E2A25" opacity="1.000000" stroke="none" 
	d="
M79.388672,27.468361 
	C79.274391,27.943298 78.794983,28.375620 78.152924,29.000484 
	C78.347832,30.932182 76.939857,31.500832 75.848434,31.812363 
	C72.166550,32.863304 68.576530,34.347374 64.336830,34.285217 
	C62.941486,33.958389 61.902283,33.848862 61.278580,32.432442 
	C67.113083,30.524660 72.773018,27.858688 79.388672,27.468361 
z"/>
<path fill="#2B2622" opacity="1.000000" stroke="none" 
	d="
M156.577011,29.297356 
	C158.240448,25.612936 156.661819,22.028444 157.811859,18.329596 
	C160.182388,26.312901 159.095688,34.390942 156.195969,42.684223 
	C155.825287,43.147457 155.644775,43.288372 155.246384,43.163700 
	C155.034607,42.476078 155.040695,42.054039 155.041199,41.315445 
	C153.911377,37.033207 154.681122,33.281342 156.577011,29.297356 
z"/>
<path fill="#34302B" opacity="1.000000" stroke="none" 
	d="
M49.800789,175.258286 
	C52.673847,175.174652 55.434071,176.252899 57.879215,178.715637 
	C55.217747,178.185242 52.057087,178.178314 49.800789,175.258286 
z"/>
<path fill="#3B3732" opacity="1.000000" stroke="none" 
	d="
M80.273758,184.279968 
	C80.418343,183.961075 80.865952,183.926559 81.648193,183.854675 
	C85.027718,184.034424 88.072594,184.251526 91.439621,184.676758 
	C88.028625,184.945602 84.286797,185.309860 80.273758,184.279968 
z"/>
<path fill="#2B2622" opacity="1.000000" stroke="none" 
	d="
M65.187752,181.267700 
	C66.716515,180.929764 68.479141,180.845413 69.938179,182.729218 
	C68.380531,183.078339 66.817154,182.561508 65.187752,181.267700 
z"/>
<path fill="#201C17" opacity="1.000000" stroke="none" 
	d="
M108.358231,183.028870 
	C109.441826,181.564896 111.262627,181.041107 113.646736,181.007477 
	C112.565125,182.480469 110.746140,183.005737 108.358231,183.028870 
z"/>
<path fill="#2B2622" opacity="1.000000" stroke="none" 
	d="
M60.594795,179.385712 
	C62.153915,179.615891 63.351665,180.098511 64.788208,180.803802 
	C63.862190,180.866394 62.697388,180.706284 61.252899,180.331909 
	C60.726612,179.957809 60.480015,179.797958 60.594795,179.385712 
z"/>
<path fill="#120E0B" opacity="1.000000" stroke="none" 
	d="
M74.835617,183.280914 
	C76.178894,183.229965 77.334290,183.468216 78.800125,183.889587 
	C77.998344,184.774704 76.853836,184.446136 75.420532,184.121338 
	C74.969116,183.898987 74.808426,183.734558 74.835617,183.280914 
z"/>
<path fill="#34302B" opacity="1.000000" stroke="none" 
	d="
M28.247276,159.408630 
	C29.529406,159.293121 30.524099,159.969040 30.961857,161.706543 
	C30.120226,161.244064 29.249804,160.457825 28.247276,159.408630 
z"/>
<path fill="#25211C" opacity="1.000000" stroke="none" 
	d="
M37.141129,167.274017 
	C38.091957,167.098495 39.095997,167.416168 39.865974,168.738495 
	C38.882782,168.940613 37.972706,168.467239 37.141129,167.274017 
z"/>
<path fill="#2B2622" opacity="1.000000" stroke="none" 
	d="
M74.691940,183.067856 
	C75.039909,183.170319 75.056328,183.348907 75.101273,183.795471 
	C74.472862,184.489639 73.794662,184.753632 72.780685,184.188614 
	C73.142708,183.740219 73.751556,183.442108 74.691940,183.067856 
z"/>
<path fill="#25211C" opacity="1.000000" stroke="none" 
	d="
M34.059654,164.293381 
	C34.573208,164.488510 35.176090,164.978622 35.889507,165.747894 
	C35.174511,165.815765 34.475555,165.441605 34.059654,164.293381 
z"/>
<path fill="#1B1814" opacity="1.000000" stroke="none" 
	d="
M170.159760,71.032440 
	C169.960785,70.319321 169.970200,69.941772 169.989563,69.281036 
	C169.999527,68.997849 170.432373,68.905731 170.645752,68.849350 
	C171.140839,68.873489 171.422546,68.954010 172.123291,69.167114 
	C172.700989,69.821838 172.674515,70.334412 172.182678,71.115677 
	C171.387650,71.583725 170.876221,71.575081 170.159760,71.032440 
z"/>
<path fill="#201C17" opacity="1.000000" stroke="none" 
	d="
M105.381775,183.942963 
	C105.844200,183.666962 106.623978,183.368546 107.722000,183.040192 
	C107.259872,183.313675 106.479500,183.617111 105.381775,183.942963 
z"/>
<path fill="#34302B" opacity="1.000000" stroke="none" 
	d="
M60.584839,179.070465 
	C60.956169,179.133286 60.964684,179.624634 60.968945,179.871155 
	C60.110722,179.920792 59.248238,179.723923 58.175083,179.267609 
	C58.714111,179.007996 59.463806,179.007828 60.584839,179.070465 
z"/>
<path fill="#34302B" opacity="1.000000" stroke="none" 
	d="
M32.144600,163.246902 
	C32.513069,163.209457 33.061081,163.416946 33.828064,163.830475 
	C33.472736,163.854950 32.898441,163.673386 32.144600,163.246902 
z"/>
<path fill="#25211C" opacity="1.000000" stroke="none" 
	d="
M40.118443,169.194336 
	C40.256969,169.168610 40.508873,169.383011 40.888199,169.825531 
	C40.783264,169.813278 40.521996,169.606903 40.118443,169.194336 
z"/>
<path fill="#151210" opacity="1.000000" stroke="none" 
	d="
M155.173981,43.092873 
	C155.028519,42.898117 155.516876,42.954464 155.761353,42.980507 
	C156.005814,43.006546 156.003510,43.498142 155.995697,43.743683 
	C155.748856,43.770813 155.526031,43.536949 155.173981,43.092873 
z"/>
<path fill="#25211C" opacity="1.000000" stroke="none" 
	d="
M36.107300,166.203629 
	C36.263954,166.159256 36.513588,166.369476 36.868790,166.823318 
	C36.704296,166.882385 36.446270,166.679474 36.107300,166.203629 
z"/>
<path fill="#34302B" opacity="1.000000" stroke="none" 
	d="
M31.087017,162.222961 
	C31.242020,162.192520 31.512344,162.386856 31.896942,162.806915 
	C31.741589,162.837662 31.471966,162.642685 31.087017,162.222961 
z"/>
<path fill="#16120F" opacity="1.000000" stroke="none" 
	d="
M150.835205,8.828404 
	C150.759583,8.800553 150.550858,8.597219 150.205811,8.223362 
	C150.286087,8.246585 150.496948,8.446612 150.835205,8.828404 
z"/>
<path fill="#38342F" opacity="1.000000" stroke="none" 
	d="
M70.750061,168.070862 
	C74.803566,168.337082 78.495705,168.667618 82.621674,169.001328 
	C85.410812,169.936295 85.451477,167.007843 87.387772,166.553894 
	C90.747368,165.961731 93.743355,165.197372 97.036949,166.775345 
	C98.023537,167.171417 98.674728,167.426178 99.709290,167.554688 
	C104.293808,166.631134 108.523293,165.645599 112.286179,162.601257 
	C114.560783,161.087967 115.918236,159.043304 118.237015,157.586121 
	C121.568779,155.964767 124.124161,153.293625 128.264648,154.003540 
	C129.457230,154.329468 130.321381,154.493942 131.544403,154.378143 
	C135.882767,153.467972 137.758499,149.939270 140.630905,147.157425 
	C141.493561,145.545013 143.190460,145.099701 143.894958,143.343445 
	C148.558228,140.368881 145.166199,137.269547 144.438385,133.940384 
	C144.440765,131.675415 146.042892,130.953064 147.175751,129.819763 
	C150.895020,126.099091 154.133759,121.954613 157.814438,117.738945 
	C163.776199,116.424896 164.886185,111.589668 166.299301,107.235275 
	C167.056992,104.900551 167.260727,102.363274 168.279236,100.070656 
	C169.049911,98.335922 169.884491,96.653412 172.594910,97.766891 
	C173.730865,108.008064 172.376373,117.711617 168.936646,127.526566 
	C163.431305,138.890167 156.701614,148.926819 147.309631,156.977188 
	C139.722015,163.480942 131.985886,169.756989 121.763802,172.447479 
	C120.618156,172.378296 120.283180,173.023880 119.628906,173.891373 
	C104.441010,179.499527 89.173019,180.345154 73.648582,177.658234 
	C71.607994,177.305054 69.312073,177.299744 68.091507,174.518097 
	C68.005692,174.033951 68.011002,173.610718 68.013298,173.399109 
	C68.022362,171.135010 68.604149,169.352631 70.750061,168.070862 
z"/>
<path fill="#25211C" opacity="1.000000" stroke="none" 
	d="
M120.936806,171.101105 
	C140.192139,163.195953 154.401367,149.898300 165.143036,132.651688 
	C166.102921,131.110504 166.665039,129.290970 168.595016,128.076324 
	C165.011139,140.878204 157.219955,151.333145 147.214035,160.039413 
	C130.815521,174.307953 111.319466,180.847687 89.755791,181.553406 
	C87.450394,181.628876 85.130608,181.264618 82.391052,181.132599 
	C64.652184,179.538269 49.198429,173.585403 36.170212,161.291656 
	C38.270111,160.879959 40.009441,162.041000 41.909046,163.119705 
	C49.930660,167.674820 58.041992,172.083862 67.608994,174.011765 
	C84.928658,178.312164 101.714958,178.054474 118.663681,172.352280 
	C119.367615,171.591995 119.874039,171.177094 120.936806,171.101105 
z"/>
<path fill="#BF7E6B" opacity="1.000000" stroke="none" 
	d="
M169.797531,70.989380 
	C170.363251,70.718842 170.775146,70.740814 171.490265,70.826889 
	C174.779938,69.441185 177.727859,69.677177 181.098907,71.197250 
	C181.548950,71.301331 181.493195,71.706398 181.290649,71.678650 
	C181.302521,72.360817 181.909775,72.476295 182.761505,72.780640 
	C186.740952,79.191551 185.444885,85.043098 178.666779,91.168198 
	C175.900833,92.112488 173.408875,91.277145 170.609863,91.487038 
	C170.045181,91.427887 169.821884,91.378738 169.329987,91.113739 
	C168.615997,88.112671 166.341125,88.595200 164.164520,88.148849 
	C162.741745,86.580711 161.495422,85.267387 161.584579,82.933289 
	C162.373444,79.960609 164.874756,78.280106 165.433197,75.168892 
	C165.898407,74.156700 166.532410,73.804718 167.379700,73.157379 
	C168.291580,72.352661 168.967636,71.817284 169.797531,70.989380 
z"/>
<path fill="#3B3732" opacity="1.000000" stroke="none" 
	d="
M172.877411,97.665207 
	C169.692169,100.353500 169.556046,103.971954 169.022415,107.388008 
	C168.182755,112.763084 163.716904,118.408127 159.246796,119.109467 
	C157.399902,117.782814 157.838989,116.611488 158.360077,114.862015 
	C159.856186,109.838928 161.333008,104.693771 159.709229,98.897415 
	C160.323608,95.687958 159.727112,92.842194 160.559814,89.696686 
	C162.174133,87.618423 163.593384,88.148254 164.950043,89.385712 
	C166.287216,90.605415 168.080734,91.173180 169.611359,92.830078 
	C171.290268,94.253189 173.015228,95.121262 172.877411,97.665207 
z"/>
<path fill="#1B1814" opacity="1.000000" stroke="none" 
	d="
M169.979218,92.735977 
	C166.640091,92.891731 164.427338,90.717667 161.701477,88.669891 
	C160.471664,88.432152 160.006058,87.864288 159.639343,86.719780 
	C159.534363,83.691986 159.256180,81.042389 159.678116,78.427536 
	C160.202682,75.176689 160.619171,71.745644 165.436798,71.636086 
	C166.255432,72.078171 166.694656,72.371109 167.374710,72.776039 
	C167.447128,73.266602 167.278732,73.645172 167.047531,74.237892 
	C166.004211,76.848793 164.538925,79.008743 163.376770,81.705162 
	C162.745163,83.765839 163.746094,85.093239 164.800995,86.732498 
	C166.470810,88.244225 168.955307,88.112167 169.824432,90.664062 
	C170.054581,90.899811 170.076218,90.961052 170.146744,91.228203 
	C170.165680,91.771301 170.114105,92.047256 169.979218,92.735977 
z"/>
<path fill="#A56E5A" opacity="1.000000" stroke="none" 
	d="
M170.567932,91.628014 
	C170.217270,91.495354 170.163452,91.210815 170.146255,91.067055 
	C172.740021,89.043686 175.343506,89.144005 178.139145,91.104797 
	C175.989410,93.260704 173.506851,93.288879 170.567932,91.628014 
z"/>
<path fill="#C3AB94" opacity="1.000000" stroke="none" 
	d="
M181.313995,71.032677 
	C178.544083,72.168068 175.652390,70.716553 172.237976,70.879707 
	C171.966843,70.541328 172.140167,70.191666 172.427917,69.570862 
	C175.577957,68.679764 178.513123,68.645584 181.313995,71.032677 
z"/>
<path fill="#C3AB94" opacity="1.000000" stroke="none" 
	d="
M182.890915,72.639969 
	C182.495895,72.678871 181.984238,72.390617 181.280334,71.876633 
	C181.945526,71.119125 182.293060,71.886253 182.890915,72.639969 
z"/>
<path fill="#443E38" opacity="1.000000" stroke="none" 
	d="
M165.728210,71.473900 
	C161.368576,75.953003 160.494553,81.202026 161.113571,87.302620 
	C158.396027,87.812218 158.501938,85.536293 158.080872,84.075851 
	C156.040604,76.999413 151.942062,71.257278 146.766510,66.219116 
	C145.935120,65.409805 144.912689,64.443199 143.152557,64.366257 
	C138.835846,60.215389 134.001785,58.722866 128.084061,59.416046 
	C127.252983,59.461357 126.774597,59.447304 125.935898,59.343063 
	C117.593666,54.551815 102.831116,59.943237 97.654648,66.245056 
	C96.657043,67.422874 95.965698,68.374702 95.150528,69.655174 
	C91.294693,70.321152 90.547043,73.293671 89.350060,76.296127 
	C88.732368,77.385323 88.097137,78.052994 87.414841,79.124153 
	C85.156509,82.744293 84.284218,86.447556 83.712578,90.649666 
	C83.021820,95.650459 81.926643,100.254112 83.338364,105.309555 
	C80.365440,108.454460 81.042267,111.584930 82.177551,114.860420 
	C83.913040,119.867630 87.385529,124.188362 87.938728,129.998596 
	C87.304611,131.927185 87.353127,133.238052 89.567436,134.017914 
	C94.053528,140.484177 99.859589,144.522141 107.246033,147.026093 
	C108.349709,148.592850 107.591980,149.717865 107.127525,150.776184 
	C108.117058,149.650314 107.586670,147.452271 110.030472,146.824127 
	C113.046776,147.684692 115.728371,147.427460 118.411713,147.450134 
	C120.241394,147.465591 121.964828,148.152634 122.347153,150.315247 
	C122.711029,152.373459 121.836678,153.822784 119.960556,154.732559 
	C112.541245,158.330383 104.986305,160.537201 96.515724,161.189331 
	C88.217117,161.828217 80.139008,162.510788 71.688858,160.542191 
	C70.956436,160.446518 71.390266,158.352539 70.131981,160.146454 
	C66.284088,161.537720 62.725471,160.809357 58.765129,160.341858 
	C57.072514,160.184341 55.854561,159.721100 54.275574,159.215851 
	C44.140152,151.455994 32.486641,147.446381 21.116474,142.117645 
	C11.583679,125.797813 9.592669,108.613068 14.566680,90.276726 
	C17.311453,88.495697 16.411282,85.426872 17.873535,83.082237 
	C18.002735,82.047890 18.025539,81.350410 18.308002,80.341675 
	C18.572046,79.256088 18.723103,78.499405 18.933323,77.361526 
	C19.467333,76.542450 19.898834,76.067184 20.415981,75.246750 
	C20.866800,73.263321 22.847162,72.395470 22.861336,70.158531 
	C26.634089,67.741089 26.452250,73.864830 29.982155,72.825722 
	C29.524450,69.177475 27.682232,65.974289 26.056444,62.324165 
	C24.723431,56.705086 23.830290,51.377537 23.953159,45.477493 
	C25.916441,43.086597 24.254147,40.276508 25.785990,37.831902 
	C26.044706,37.040607 26.122150,36.607384 26.326447,35.868977 
	C28.081343,34.261883 28.662077,32.265030 29.600277,30.550169 
	C33.092171,24.167618 36.583096,22.592833 44.226685,24.375641 
	C51.210274,24.879246 53.783012,30.587355 57.613087,34.644333 
	C58.561424,35.648849 58.542751,37.536488 60.745857,37.856186 
	C62.326591,38.411308 63.830246,39.130657 64.659012,37.680069 
	C67.130615,33.354053 71.195282,32.492527 75.624245,31.898560 
	C76.862198,31.732540 78.340164,31.639561 79.850296,30.824509 
	C83.200279,31.787096 85.924141,30.604399 89.085526,29.746204 
	C93.233833,29.285378 97.019386,29.813095 101.177719,29.400143 
	C104.859093,29.599243 107.922813,31.376144 111.689140,30.801880 
	C125.397377,32.605846 136.692429,39.124538 147.785858,46.080261 
	C148.857651,46.752277 149.693558,47.877983 149.759705,49.725723 
	C156.127426,56.370132 161.735931,63.127518 165.728210,71.473900 
z"/>
<path fill="#413C36" opacity="1.000000" stroke="none" 
	d="
M56.589417,159.116394 
	C61.019756,158.734604 65.211594,159.626709 69.650757,158.137695 
	C70.413437,157.590103 70.875191,157.457718 71.702614,157.783478 
	C75.413017,161.811325 80.438309,160.708389 84.126289,160.370575 
	C95.023521,159.372452 106.303085,159.494293 116.453239,154.264709 
	C117.333694,153.811081 118.212585,153.340439 119.034332,152.791122 
	C119.726982,152.328094 120.338196,151.710587 120.223999,150.770630 
	C120.072166,149.520844 119.062172,149.259689 118.065056,149.138245 
	C115.281975,148.799271 112.491783,148.518661 109.295181,148.136139 
	C108.534569,148.381744 108.121185,148.517731 107.370338,148.259308 
	C99.034462,146.785950 93.204697,142.327957 88.949394,135.110535 
	C88.795906,134.510971 88.760277,134.250259 88.938995,133.658676 
	C91.746368,131.493286 93.816391,133.317505 95.333878,134.784424 
	C102.244980,141.465240 110.591797,143.821442 120.288925,143.737656 
	C121.939034,144.186646 123.245033,144.258957 124.974037,144.279388 
	C127.308235,143.926270 129.250061,143.792664 131.186630,143.818466 
	C136.288467,143.886520 137.517410,145.682251 135.940308,151.304810 
	C133.964722,153.752457 130.889603,154.258286 129.173981,156.920319 
	C125.345001,155.486710 122.636292,158.112259 119.206619,158.845779 
	C116.617661,158.179840 116.545135,160.856293 114.718948,161.453827 
	C106.496437,167.027924 97.481537,165.391357 88.379364,165.658279 
	C87.139519,165.510605 86.365646,165.276245 85.465317,164.361160 
	C75.723953,162.530716 65.954430,164.199265 56.274582,161.101288 
	C55.560123,160.276871 55.799644,159.728729 56.589417,159.116394 
z"/>
<path fill="#554C43" opacity="1.000000" stroke="none" 
	d="
M85.139511,164.413544 
	C85.872795,164.048599 86.567688,164.035110 87.612930,164.015686 
	C89.019424,165.291672 89.123863,166.488083 87.281097,167.745117 
	C85.738762,168.564194 85.559441,171.570374 83.153168,169.241791 
	C84.446037,167.933273 84.988304,166.452759 85.139511,164.413544 
z"/>
<path fill="#5C5148" opacity="1.000000" stroke="none" 
	d="
M56.669895,158.871796 
	C56.646328,159.486649 56.401997,159.976074 56.033142,160.710144 
	C55.044075,161.927750 54.179527,162.900681 53.150368,164.058868 
	C52.191635,162.101227 53.437466,160.920151 53.841801,159.292068 
	C54.787186,158.915680 55.618160,158.831009 56.669895,158.871796 
z"/>
<path fill="#554C43" opacity="1.000000" stroke="none" 
	d="
M70.845352,167.892700 
	C70.214859,169.552765 69.318291,171.099014 68.218658,172.916367 
	C66.880615,170.441574 67.205032,168.387421 70.845352,167.892700 
z"/>
<path fill="#25211C" opacity="1.000000" stroke="none" 
	d="
M34.879196,159.702576 
	C33.431934,159.652191 32.264633,158.773697 31.313694,157.118561 
	C32.740341,157.161606 34.184860,157.673676 34.879196,159.702576 
z"/>
<path fill="#554C43" opacity="1.000000" stroke="none" 
	d="
M18.439552,82.201294 
	C18.059431,84.945564 19.171928,88.399643 15.139759,89.884308 
	C15.401449,87.747910 16.041533,85.535950 16.812101,82.966507 
	C17.307959,82.379341 17.702126,82.221588 18.439552,82.201294 
z"/>
<path fill="#15120F" opacity="1.000000" stroke="none" 
	d="
M18.733095,81.986053 
	C18.351944,82.343277 17.949863,82.419724 17.245184,82.552605 
	C17.305727,81.849426 17.668869,81.089806 18.226501,80.171478 
	C18.518049,80.576942 18.615108,81.141113 18.733095,81.986053 
z"/>
<path fill="#15120F" opacity="1.000000" stroke="none" 
	d="
M20.365742,75.119102 
	C20.631844,75.812935 20.189854,76.349823 19.242254,76.854172 
	C19.378141,76.409309 19.763800,75.838280 20.365742,75.119102 
z"/>
<path fill="#151210" opacity="1.000000" stroke="none" 
	d="
M150.121887,49.864292 
	C138.779617,41.430496 126.743362,34.735176 112.335365,32.094246 
	C108.777832,32.738556 105.700089,31.981768 102.258263,31.172558 
	C97.995445,31.115850 94.083344,31.316067 89.873871,31.748047 
	C86.714371,33.047504 83.534004,30.917055 80.387154,32.932457 
	C77.235458,33.262188 74.341255,33.125340 71.710312,33.891953 
	C69.506180,34.534206 66.947571,35.334934 66.252998,38.315163 
	C65.975006,39.507946 66.139740,41.503304 64.717339,41.699760 
	C62.780056,41.967331 62.370754,39.748608 61.234833,38.229057 
	C62.462002,37.236904 63.627380,36.346668 63.941872,34.361862 
	C68.454742,32.541225 72.916374,31.039030 77.684143,29.364933 
	C93.795258,26.604103 109.331680,28.489876 125.168289,32.046577 
	C126.029625,32.077869 126.468918,31.964817 127.204819,31.630981 
	C127.984222,31.426579 128.440430,31.457666 129.210403,31.713490 
	C133.980301,33.653339 138.078644,36.115219 142.150650,38.618862 
	C143.873215,39.677967 145.651657,40.496826 148.070557,40.604973 
	C150.064224,41.218891 151.894470,41.451172 152.880920,43.635887 
	C153.113861,46.327080 152.281662,48.219849 150.121887,49.864292 
z"/>
<path fill="#A99F8D" opacity="1.000000" stroke="none" 
	d="
M44.247604,24.266937 
	C35.280636,22.381907 30.948502,29.196489 26.228098,35.250957 
	C28.276030,33.919971 28.333370,31.543478 28.978878,29.419420 
	C30.832701,23.319386 38.816952,20.529648 44.247604,24.266937 
z"/>
<path fill="#61554B" opacity="1.000000" stroke="none" 
	d="
M25.659321,37.740242 
	C25.819113,39.921215 26.675739,42.557369 24.291111,44.837273 
	C24.184076,42.639965 23.196627,40.012539 25.659321,37.740242 
z"/>
<path fill="#423D37" opacity="1.000000" stroke="none" 
	d="
M153.108566,43.699020 
	C151.401337,43.980759 149.871948,43.694344 148.247406,42.617523 
	C147.860916,42.192223 147.709274,42.003853 147.292801,41.565910 
	C146.551468,40.714832 146.355392,40.028103 146.482697,38.906937 
	C146.602692,38.305569 146.645020,38.063965 146.744781,37.458916 
	C146.936890,36.376331 147.023621,35.648140 147.356781,34.609505 
	C150.584518,31.332956 151.713486,28.077337 148.905212,23.939642 
	C145.427826,17.608032 142.224228,16.574970 135.929276,19.832436 
	C131.652390,21.555145 129.256302,24.656992 127.265663,28.635834 
	C126.857208,29.022890 126.664734,29.145433 126.135117,29.329542 
	C125.575760,29.337555 125.353531,29.284000 124.817398,29.092480 
	C123.713379,28.354296 122.923264,27.754078 121.849655,27.022545 
	C122.399712,20.847334 128.017487,18.910370 131.912750,15.088452 
	C140.054428,9.327971 146.372559,9.417094 152.290222,15.576151 
	C155.430435,19.514822 154.668655,23.950407 155.352417,28.517647 
	C156.791870,32.866467 155.335693,36.550133 154.253601,40.642406 
	C153.729645,41.800003 153.473633,42.601681 153.108566,43.699020 
z"/>
<path fill="#867E6D" opacity="1.000000" stroke="none" 
	d="
M152.405029,15.624802 
	C146.255219,10.860665 139.699188,10.741759 132.563828,14.827561 
	C136.429596,9.003523 142.492920,10.293540 148.665237,10.934982 
	C150.063797,12.509899 152.000229,13.287564 152.405029,15.624802 
z"/>
<path fill="#A36750" opacity="1.000000" stroke="none" 
	d="
M148.296722,40.658859 
	C148.091782,41.208893 148.047714,41.440208 148.008087,42.026058 
	C146.168182,44.055302 144.611984,43.346184 142.825836,42.060070 
	C138.407776,38.878841 133.744446,36.081207 128.292114,34.017433 
	C127.929726,33.968250 127.673241,33.605804 127.452530,33.629803 
	C126.842430,33.326122 126.453033,32.998440 125.814827,32.381531 
	C125.736572,31.688578 125.907143,31.284851 126.134026,30.556993 
	C125.996704,30.052437 125.803055,29.872013 125.874863,29.396372 
	C126.140305,29.101154 126.079994,29.012264 126.095337,29.063618 
	C126.276733,28.923552 126.442780,28.732132 126.896523,28.295300 
	C127.841797,27.600510 128.632050,27.647350 129.741043,27.491318 
	C135.012131,29.984470 140.543808,31.168837 145.184052,34.967655 
	C146.607498,35.299515 147.122299,36.166080 147.912445,37.245220 
	C148.216583,37.761936 148.319763,37.978497 148.456879,38.552246 
	C148.498398,39.386772 148.487350,39.863670 148.296722,40.658859 
z"/>
<path fill="#151210" opacity="1.000000" stroke="none" 
	d="
M125.734772,29.023495 
	C126.223686,29.286249 126.307076,29.471346 126.290405,29.944651 
	C125.805626,29.963097 125.420898,29.693335 124.769836,29.189041 
	C124.778748,28.951620 125.054001,28.948729 125.734772,29.023495 
z"/>
<path fill="#151210" opacity="1.000000" stroke="none" 
	d="
M154.248138,40.998802 
	C154.403381,37.275421 154.821106,33.552513 155.345215,29.391462 
	C155.759171,28.960464 156.066803,28.965351 156.604568,28.967583 
	C157.248734,32.865437 156.285629,36.588837 155.214355,40.660042 
	C154.860596,40.999020 154.685608,40.999149 154.248138,40.998802 
z"/>
<path fill="#443E38" opacity="1.000000" stroke="none" 
	d="
M26.456139,67.489395 
	C26.487497,67.474487 26.424778,67.504295 26.456139,67.489395 
z"/>
<path fill="#2B2925" opacity="1.000000" stroke="none" 
	d="
M161.645142,98.885056 
	C164.221970,104.278831 160.956619,108.964943 160.340408,113.941391 
	C160.160675,115.392921 159.505920,116.785629 159.021667,118.586472 
	C154.770477,123.789696 150.566498,128.611755 146.174774,133.707779 
	C145.713867,136.474960 144.494522,138.132782 142.071381,139.085663 
	C136.913269,141.114029 132.002350,144.043060 125.681473,142.973648 
	C124.706284,142.927322 124.148880,142.912003 123.173630,142.884003 
	C108.925217,145.218964 98.817078,138.846741 90.203056,128.975708 
	C88.995316,127.591721 87.743065,126.218559 88.521523,123.764412 
	C91.844734,120.172073 93.626442,125.285324 96.720184,124.766899 
	C97.305840,125.016289 97.522850,125.146675 98.007797,125.534470 
	C99.053223,127.566704 100.566833,128.526276 102.491058,129.532288 
	C107.468414,133.499802 112.699722,134.610672 118.859207,132.862259 
	C119.700203,132.852219 120.180923,132.894196 121.020264,133.037262 
	C123.869263,136.513809 126.880081,134.749023 129.841370,134.028885 
	C135.489288,132.655457 140.947479,130.961975 145.215118,126.087906 
	C153.965179,120.415222 156.889618,111.699295 159.290359,102.667915 
	C159.670319,101.238556 159.216232,99.372276 161.645142,98.885056 
z"/>
<path fill="#3B3732" opacity="1.000000" stroke="none" 
	d="
M124.593063,141.410065 
	C132.457916,141.114716 139.042770,138.072464 145.696518,134.169006 
	C150.029663,137.666489 149.978104,139.887360 145.436478,143.889252 
	C143.164078,144.991608 144.500656,147.210373 143.205872,148.752625 
	C139.496445,151.206512 137.581192,155.766159 132.333710,155.973267 
	C130.373444,154.100693 130.915344,152.357498 132.601532,150.356812 
	C135.681824,147.774582 134.796310,146.562439 131.693893,146.255112 
	C129.416550,146.029526 127.110451,146.094269 124.429993,146.013031 
	C122.284798,144.450516 123.386665,143.086563 124.593063,141.410065 
z"/>
<path fill="#3C3832" opacity="1.000000" stroke="none" 
	d="
M87.356087,167.960327 
	C87.249336,166.863144 87.582268,165.778336 87.939247,164.351624 
	C96.760841,162.937073 105.880150,164.019852 114.637238,160.042816 
	C115.909538,161.343903 114.760880,162.337296 114.205841,163.774170 
	C110.840141,168.972000 105.196999,168.074203 100.308876,169.890076 
	C99.013191,169.216309 98.403305,170.308578 97.334381,170.207809 
	C94.379608,167.530334 91.007317,168.107101 87.356087,167.960327 
z"/>
<path fill="#5C5148" opacity="1.000000" stroke="none" 
	d="
M132.573395,150.160736 
	C132.585037,151.769791 132.284683,153.498703 131.970520,155.607910 
	C131.009644,156.513138 131.175735,159.181107 128.954926,157.265884 
	C129.969757,154.787643 129.452225,151.691742 132.573395,150.160736 
z"/>
<path fill="#5C5148" opacity="1.000000" stroke="none" 
	d="
M114.265747,163.900558 
	C114.244591,162.935852 114.503326,161.794266 114.892990,160.326309 
	C116.468384,159.879837 115.686646,154.587234 118.831230,158.642151 
	C117.416252,160.517395 115.980949,162.120529 114.265747,163.900558 
z"/>
<path fill="#554C43" opacity="1.000000" stroke="none" 
	d="
M143.271622,148.778564 
	C143.077728,147.199966 142.979797,145.373535 143.290176,143.619324 
	C143.513184,142.358856 144.312805,141.805542 145.050400,143.768204 
	C144.951462,145.657532 144.890884,147.332184 143.271622,148.778564 
z"/>
<path fill="#554C43" opacity="1.000000" stroke="none" 
	d="
M97.144989,170.270752 
	C97.535240,169.403030 98.012810,168.735214 98.510910,168.083069 
	C98.893959,167.581543 99.321579,166.730637 99.991493,167.168701 
	C100.837509,167.721954 100.147308,168.655792 99.994019,169.698120 
	C99.090736,170.447037 98.456245,171.999161 97.144989,170.270752 
z"/>
<path fill="#5C5148" opacity="1.000000" stroke="none" 
	d="
M121.283447,170.813751 
	C120.714661,171.416626 120.153778,171.709839 119.289047,172.095184 
	C119.500313,170.529846 119.348656,168.586472 120.990318,167.343369 
	C122.326530,168.348511 121.118141,169.485855 121.283447,170.813751 
z"/>
<path fill="#A56E5A" opacity="1.000000" stroke="none" 
	d="
M170.034821,90.493256 
	C168.206940,90.159134 166.402542,89.354736 165.129395,87.306503 
	C168.179581,87.271797 169.069427,84.944489 170.481262,82.682373 
	C170.325851,85.150482 170.170456,87.618584 170.034821,90.493256 
z"/>
<path fill="#BDA686" opacity="1.000000" stroke="none" 
	d="
M163.487244,81.861343 
	C162.704758,78.931213 163.953995,76.673424 166.716919,74.725800 
	C166.762970,77.244537 166.195312,79.885811 163.487244,81.861343 
z"/>
<path fill="#151210" opacity="1.000000" stroke="none" 
	d="
M162.014221,98.533554 
	C160.123581,105.107826 159.092896,111.514954 155.476730,117.048264 
	C153.024246,120.800941 150.790726,124.667183 146.371643,127.041122 
	C145.533203,126.954300 145.128098,126.616730 144.695908,125.771790 
	C143.702072,122.802277 145.805557,121.447159 147.031708,119.816399 
	C154.535004,109.837158 157.403488,98.807983 154.413223,86.575684 
	C152.894379,80.362564 149.545868,75.037880 145.317413,70.245827 
	C143.832382,68.562859 141.621109,67.279091 141.803772,64.189621 
	C142.050415,63.587391 142.199493,63.368793 142.688202,62.944847 
	C150.806992,66.060005 154.983932,72.607162 158.248703,79.905006 
	C159.248199,82.139221 159.872238,84.541405 160.832001,87.266739 
	C161.081879,87.877663 161.174149,88.085724 161.319839,88.379333 
	C161.577011,91.670464 161.786926,94.873260 162.014221,98.533554 
z"/>
<path fill="#CB826D" opacity="1.000000" stroke="none" 
	d="
M35.001900,39.244251 
	C35.612694,39.030827 35.818123,38.921848 35.996136,38.509556 
	C36.423092,37.560017 37.057858,37.022518 38.080505,36.279938 
	C41.107491,33.622623 43.953217,33.708973 47.280720,35.643951 
	C49.723209,36.556656 50.430103,38.730152 52.321358,40.234474 
	C53.575230,42.204906 55.335220,43.381050 55.962658,45.726227 
	C50.095531,52.706547 44.984558,60.210720 35.662643,63.135818 
	C34.809406,62.681881 34.454903,62.267708 34.126247,61.352798 
	C33.539772,57.762829 32.953426,54.588753 32.985420,50.923309 
	C33.110016,46.759571 31.969685,42.823215 35.001900,39.244251 
z"/>
<path fill="#3B3732" opacity="1.000000" stroke="none" 
	d="
M90.307037,122.733063 
	C93.667992,132.171890 101.379837,136.640778 110.007828,139.838715 
	C113.893860,141.279053 118.128357,141.056076 122.715851,141.154999 
	C124.280792,143.199142 123.143410,144.543396 121.419861,145.914612 
	C110.699585,146.570663 101.310860,144.451447 93.789185,136.658203 
	C92.697121,135.526718 90.943626,135.033585 89.149437,134.166168 
	C86.944069,134.341309 86.679214,132.975464 86.177261,131.394531 
	C84.846497,125.916664 82.430763,121.222717 80.322845,116.383621 
	C78.845818,112.992844 77.261566,109.156990 81.881271,106.128532 
	C83.142097,105.819725 83.716461,106.276199 84.269440,107.373566 
	C84.948639,110.809502 85.935616,113.716385 87.566452,116.785141 
	C88.177490,118.586136 89.291168,119.495682 90.626160,120.686676 
	C90.845985,121.528206 90.775505,122.014061 90.307037,122.733063 
z"/>
<path fill="#201C17" opacity="1.000000" stroke="none" 
	d="
M46.400379,119.554123 
	C43.265751,119.840584 42.704926,117.409248 42.230999,115.505455 
	C40.657471,109.184525 45.211777,100.234604 50.894547,97.939323 
	C58.140911,95.012497 65.806503,97.240601 69.858627,103.451477 
	C74.873032,111.137283 69.955544,122.611526 60.869751,124.016144 
	C57.426556,124.548447 53.737019,126.501762 50.219757,123.128891 
	C50.251183,122.346832 50.592319,121.990639 51.401428,121.637833 
	C52.482876,121.381378 53.198280,121.192688 54.294174,121.087250 
	C56.043411,121.010948 57.440361,121.028740 59.132561,120.582359 
	C60.871441,120.527397 62.209721,120.369980 63.341690,118.847122 
	C67.870735,114.973412 68.625717,112.551605 66.170929,107.547897 
	C64.610413,104.367020 64.172165,99.325920 58.100159,101.147575 
	C56.686504,101.979828 55.289265,102.005310 53.955830,103.012054 
	C53.482662,103.266594 53.287952,103.357811 52.779259,103.517998 
	C52.044956,103.680763 51.627972,103.787575 50.907398,104.017609 
	C47.678535,104.840256 48.866753,107.542572 48.009640,109.622025 
	C47.172550,113.021965 46.759800,116.143272 46.400379,119.554123 
z"/>
<path fill="#A66951" opacity="1.000000" stroke="none" 
	d="
M35.436733,62.546421 
	C41.995316,56.909584 48.312191,51.605701 54.935364,46.141930 
	C57.810642,45.553112 57.942871,47.542171 58.319405,49.547455 
	C55.270363,49.586262 55.168541,53.150280 52.608452,53.735176 
	C52.038261,53.660160 51.781372,53.634380 51.510464,53.995613 
	C52.756405,58.788689 47.971474,59.362995 46.238396,61.640846 
	C44.326263,64.154037 41.960743,67.127640 38.463348,68.808800 
	C35.074818,67.905533 35.466469,65.229004 35.436733,62.546421 
z"/>
<path fill="#2E2A25" opacity="1.000000" stroke="none" 
	d="
M96.443665,66.552467 
	C101.776535,58.022713 116.834061,53.530704 125.749161,57.514240 
	C125.221008,59.998531 123.013885,59.422417 121.163864,60.269524 
	C117.809319,60.281128 114.748482,59.907005 111.937210,62.317364 
	C109.199310,63.724384 106.603226,64.657845 103.999054,66.347511 
	C101.769218,66.260620 100.021248,66.931473 97.883209,67.338097 
	C97.312096,67.241409 97.090523,67.166199 96.443665,66.552467 
z"/>
<path fill="#A56E5A" opacity="1.000000" stroke="none" 
	d="
M46.490910,119.769844 
	C45.399723,116.467079 42.640156,113.162720 46.095093,109.409744 
	C48.600616,108.004883 48.465733,105.494461 49.484806,103.257172 
	C50.309349,102.379562 51.088505,101.921524 51.666382,100.866417 
	C51.701214,100.536842 51.945232,100.594749 51.916595,100.716835 
	C52.961067,100.319389 54.105415,100.549782 55.635170,100.606125 
	C57.540489,101.495911 57.474403,102.880646 57.286804,104.663406 
	C57.003262,105.527924 56.774937,105.989822 56.326271,106.758743 
	C55.761951,107.716591 55.492737,108.391586 55.232758,109.449097 
	C54.778297,110.396286 54.460640,111.016518 53.738743,111.752037 
	C51.885174,112.659813 51.464962,114.144997 50.862457,115.889877 
	C50.489655,116.524712 50.257198,116.871796 49.844620,117.466492 
	C49.627926,117.921799 49.572338,118.116669 49.439888,118.603912 
	C49.059860,119.448036 48.625965,119.823723 47.724709,119.773285 
	C47.249069,119.663017 47.033249,119.699379 46.490910,119.769844 
z"/>
<path fill="#0C0A09" opacity="1.000000" stroke="none" 
	d="
M62.761555,85.249481 
	C62.143654,84.437439 61.672180,83.909927 61.517975,83.301949 
	C60.927929,80.975571 60.804646,78.691612 63.161064,77.168549 
	C64.369026,76.387787 65.721565,76.270996 66.727341,77.464317 
	C68.299789,79.329979 69.015320,81.566032 67.991310,83.861214 
	C67.042862,85.987022 65.210991,86.488571 62.761555,85.249481 
z"/>
<path fill="#0C0A09" opacity="1.000000" stroke="none" 
	d="
M149.753738,63.081802 
	C149.029266,62.411888 148.444031,61.986645 148.202194,61.415894 
	C147.200607,59.052280 147.220062,56.598431 149.831284,55.549694 
	C152.079056,54.646931 153.027954,56.812504 153.455048,58.550045 
	C154.121460,61.261086 153.787918,63.577431 149.753738,63.081802 
z"/>
<path fill="#1D1A17" opacity="1.000000" stroke="none" 
	d="
M83.417915,108.224960 
	C82.874352,107.474335 82.694763,106.966827 82.376732,106.232224 
	C80.521255,100.958717 81.089165,95.877846 82.054031,90.368225 
	C82.535637,89.155914 83.077599,88.528023 84.485977,88.824944 
	C87.565216,95.042274 86.376228,101.311867 85.744781,107.859207 
	C84.935974,108.499794 84.376945,108.592484 83.417915,108.224960 
z"/>
<path fill="#25211C" opacity="1.000000" stroke="none" 
	d="
M142.876465,62.455780 
	C142.999008,62.999252 142.970169,63.259010 142.888748,63.907249 
	C141.388474,66.178795 139.690765,65.395065 138.048355,64.696388 
	C135.830643,63.752995 133.747757,62.464138 130.899307,62.040928 
	C129.063568,61.363834 128.475754,60.124020 128.032776,58.347202 
	C130.207489,54.866554 132.499084,57.508350 134.604538,57.972294 
	C137.610245,58.634586 140.605179,59.645504 142.876465,62.455780 
z"/>
<path fill="#181511" opacity="1.000000" stroke="none" 
	d="
M48.264664,37.005913 
	C44.931114,35.973621 41.875801,35.378830 38.359718,36.816513 
	C37.848232,36.781189 37.706642,36.613312 37.760616,36.180359 
	C40.922028,31.456583 43.027351,31.215403 48.570404,34.938568 
	C49.274685,35.808941 49.031239,36.364948 48.264664,37.005913 
z"/>
<path fill="#181511" opacity="1.000000" stroke="none" 
	d="
M84.460426,89.170227 
	C83.571617,89.251381 83.079994,89.483025 82.343735,89.829727 
	C82.434708,85.870712 83.682991,82.067482 85.745102,78.163437 
	C86.376045,77.591522 86.826714,77.421844 87.679207,77.455635 
	C89.584259,79.166466 88.756172,81.416260 89.508163,83.630707 
	C88.888603,86.632843 87.832695,88.811470 84.460426,89.170227 
z"/>
<path fill="#312920" opacity="1.000000" stroke="none" 
	d="
M58.433884,49.754559 
	C57.394470,48.717262 56.572094,47.526649 55.495686,46.159039 
	C54.159752,44.597710 53.077850,43.213379 51.968388,41.496372 
	C51.578007,40.647221 51.468864,40.081783 51.906116,39.127003 
	C55.036430,41.981686 59.501587,44.205730 58.433884,49.754559 
z"/>
<path fill="#483728" opacity="1.000000" stroke="none" 
	d="
M33.157227,49.731586 
	C33.892025,53.309479 34.396103,56.744823 34.874752,60.612503 
	C34.482857,61.382984 34.053200,61.514133 33.287613,61.208385 
	C31.540819,57.732735 32.097679,54.280075 31.988491,50.450287 
	C32.235413,49.716961 32.547760,49.578247 33.157227,49.731586 
z"/>
<path fill="#2E2A25" opacity="1.000000" stroke="none" 
	d="
M87.648773,76.269447 
	C88.957619,73.084404 89.557495,69.781929 94.036789,69.230827 
	C95.325104,69.955910 95.637062,70.653656 95.805595,71.834824 
	C95.748207,73.327789 95.287842,74.282463 94.474182,75.512039 
	C93.816406,76.166016 93.404358,76.501091 92.666740,77.064720 
	C91.103203,77.778183 89.818352,77.835052 88.173958,77.506104 
	C87.733253,77.096497 87.631142,76.863861 87.648773,76.269447 
z"/>
<path fill="#5C5148" opacity="1.000000" stroke="none" 
	d="
M84.834541,64.023361 
	C82.001106,64.010597 80.519531,62.364616 79.619919,60.089191 
	C79.514481,59.822514 80.104393,58.953590 80.204651,58.980778 
	C82.734375,59.666847 84.406975,61.250950 84.834541,64.023361 
z"/>
<path fill="#201A15" opacity="1.000000" stroke="none" 
	d="
M33.510780,49.504799 
	C33.073338,49.858410 32.762856,49.887207 32.222984,49.982864 
	C31.960409,46.221291 30.739996,42.139122 34.999756,39.179070 
	C34.326687,42.313141 33.586655,45.657925 33.510780,49.504799 
z"/>
<path fill="#AE715D" opacity="1.000000" stroke="none" 
	d="
M47.803627,117.169510 
	C48.220150,116.682594 48.428139,116.486542 48.802971,116.155212 
	C49.400997,115.666656 49.893772,115.444305 50.848663,115.417297 
	C52.327259,116.036865 52.589821,117.179413 53.260521,118.488457 
	C53.590111,120.013351 53.438652,121.067528 52.384449,122.244255 
	C51.601460,122.591980 51.154907,122.701439 50.362778,122.808411 
	C50.017197,122.805916 49.974293,122.911346 50.025543,122.936089 
	C49.506069,122.577332 48.884781,122.263077 48.229031,121.452850 
	C47.871738,120.836189 47.697643,120.511856 47.494217,119.907082 
	C47.615044,119.235527 47.765198,118.844406 47.962418,118.242813 
	C47.869762,117.839996 47.730038,117.647644 47.803627,117.169510 
z"/>
<path fill="#28221B" opacity="1.000000" stroke="none" 
	d="
M33.042778,61.353268 
	C33.422295,60.998619 33.829723,61.018768 34.543240,61.041878 
	C35.021523,61.314064 35.190422,61.585350 35.517231,62.036079 
	C36.387295,64.226120 37.096149,66.238770 37.977444,68.562195 
	C33.161945,68.833603 34.498779,64.298065 33.042778,61.353268 
z"/>
<path fill="#5C5148" opacity="1.000000" stroke="none" 
	d="
M85.854095,131.412918 
	C87.317528,131.440491 87.912277,132.492447 88.642868,133.827942 
	C88.802673,134.087250 88.822945,134.431824 88.827240,134.601746 
	C86.652954,134.817810 85.906013,137.210205 83.961563,138.014343 
	C83.461006,135.399704 84.893227,133.643326 85.854095,131.412918 
z"/>
<path fill="#5C5148" opacity="1.000000" stroke="none" 
	d="
M115.082458,40.849777 
	C116.786133,42.926998 117.154770,45.050911 116.462418,48.636478 
	C114.920441,45.366055 112.548813,43.588737 115.082458,40.849777 
z"/>
<path fill="#61554B" opacity="1.000000" stroke="none" 
	d="
M91.755890,38.258530 
	C92.352318,39.507843 93.514000,40.841122 92.200394,41.468956 
	C90.810829,42.133099 90.030220,40.428909 89.395195,39.398972 
	C88.790192,38.417721 87.483231,37.015888 89.145157,36.143185 
	C90.369003,35.500526 90.882690,37.184917 91.755890,38.258530 
z"/>
<path fill="#A99F8D" opacity="1.000000" stroke="none" 
	d="
M127.681221,57.972454 
	C129.083145,58.277145 130.140366,58.626606 131.526184,59.050274 
	C131.704910,62.532177 128.981567,62.071541 126.883812,62.268215 
	C124.817741,62.461926 122.680893,62.518497 120.410660,61.038582 
	C119.943512,60.361656 119.824394,60.048111 119.906982,59.273666 
	C121.809929,58.517452 123.511139,58.222137 125.587448,57.873531 
	C126.420540,57.885902 126.878540,57.951565 127.681221,57.972454 
z"/>
<path fill="#5C5148" opacity="1.000000" stroke="none" 
	d="
M106.985382,148.387741 
	C107.493454,148.052551 107.892021,148.051697 108.588272,148.054047 
	C108.176201,150.838943 107.717819,153.744675 104.836723,156.210617 
	C104.135223,152.918228 106.423172,151.049011 106.985382,148.387741 
z"/>
<path fill="#5C5148" opacity="1.000000" stroke="none" 
	d="
M103.112473,46.622707 
	C104.081093,48.394844 105.435562,49.764225 104.958817,52.256794 
	C102.922806,50.445675 101.071594,49.039478 102.031471,46.170727 
	C102.049049,46.118195 102.350044,46.122120 102.501404,46.163456 
	C102.654678,46.205299 102.786293,46.326427 103.112473,46.622707 
z"/>
<path fill="#61554B" opacity="1.000000" stroke="none" 
	d="
M66.325470,65.359772 
	C67.946907,63.722630 68.763702,64.181908 71.040024,67.969765 
	C68.843788,68.353157 67.981598,66.358932 66.325470,65.359772 
z"/>
<path fill="#5C5148" opacity="1.000000" stroke="none" 
	d="
M70.576714,134.990112 
	C71.595551,137.459686 70.082382,138.785919 68.076477,140.711044 
	C67.663330,137.811096 68.568573,136.221634 70.576714,134.990112 
z"/>
<path fill="#867E6D" opacity="1.000000" stroke="none" 
	d="
M80.343674,33.063622 
	C82.604622,30.317261 85.618225,30.708511 89.152893,31.893452 
	C86.684898,32.958660 83.722046,33.380802 80.343674,33.063622 
z"/>
<path fill="#5C5148" opacity="1.000000" stroke="none" 
	d="
M78.071014,43.999813 
	C74.921867,45.857773 75.230484,43.045040 74.048828,41.188366 
	C76.739365,40.722164 77.150909,42.550632 78.071014,43.999813 
z"/>
<path fill="#5C5148" opacity="1.000000" stroke="none" 
	d="
M72.080582,157.682175 
	C71.561165,158.003479 71.119705,157.994263 70.347794,157.968277 
	C70.726166,155.618652 70.971748,152.983063 73.858582,151.537827 
	C74.428696,154.199036 72.282944,155.449814 72.080582,157.682175 
z"/>
<path fill="#5C5148" opacity="1.000000" stroke="none" 
	d="
M102.151596,31.209091 
	C105.046219,30.675419 108.120598,31.085987 111.556366,31.935040 
	C108.678185,33.416172 105.469879,33.650978 102.151596,31.209091 
z"/>
<path fill="#28221B" opacity="1.000000" stroke="none" 
	d="
M52.072746,38.499043 
	C52.131695,39.314579 52.064564,39.842533 51.969131,40.767090 
	C49.641026,41.169956 49.627934,38.691956 48.087540,37.429935 
	C48.183235,36.630100 48.406689,36.134747 48.737717,35.392849 
	C50.263962,35.778599 51.263546,36.834927 52.072746,38.499043 
z"/>
<path fill="#61554B" opacity="1.000000" stroke="none" 
	d="
M90.282051,153.831238 
	C90.160019,151.692871 90.633797,149.538818 93.277382,147.607361 
	C93.333649,150.499802 92.376793,152.249908 90.282051,153.831238 
z"/>
<path fill="#61554B" opacity="1.000000" stroke="none" 
	d="
M89.048843,50.739170 
	C90.901939,50.292912 90.901939,50.292912 91.866714,53.048191 
	C90.103897,53.452267 89.756668,52.011627 89.048843,50.739170 
z"/>
<path fill="#2E2A25" opacity="1.000000" stroke="none" 
	d="
M94.059357,69.047348 
	C94.107574,67.924614 94.382378,66.913155 95.727409,66.152542 
	C96.018387,66.013954 96.004395,66.003532 96.002884,66.002487 
	C96.364319,66.373360 96.592545,66.814934 96.633392,67.702332 
	C96.204521,68.807747 95.601532,69.205017 94.432541,69.178322 
	C94.072586,69.055763 94.060455,69.045937 94.059357,69.047348 
z"/>
<path fill="#201A15" opacity="1.000000" stroke="none" 
	d="
M37.668785,36.064388 
	C37.965122,36.087471 37.974056,36.259666 37.986404,36.690460 
	C37.526302,37.323368 37.062786,37.697670 36.317207,38.201714 
	C36.483891,37.625465 36.932640,36.919483 37.668785,36.064388 
z"/>
<path fill="#38342F" opacity="1.000000" stroke="none" 
	d="
M87.539642,76.054169 
	C87.870033,76.214676 87.971550,76.521675 88.060349,77.408081 
	C87.587029,77.970879 87.126427,77.954254 86.320930,77.913620 
	C86.420952,77.326637 86.865868,76.763649 87.539642,76.054169 
z"/>
<path fill="#201C17" opacity="1.000000" stroke="none" 
	d="
M48.029690,121.390343 
	C48.656570,121.582558 49.267307,122.004578 49.977417,122.693718 
	C49.093281,122.969109 48.103512,122.987007 48.029690,121.390343 
z"/>
<path fill="#61554B" opacity="1.000000" stroke="none" 
	d="
M93.489807,55.479019 
	C93.515045,55.467789 93.464577,55.490246 93.489807,55.479019 
z"/>
<path fill="#61554B" opacity="1.000000" stroke="none" 
	d="
M90.008789,154.014191 
	C90.018402,154.026154 89.907883,154.028915 89.941650,154.005981 
	C89.975418,153.983047 89.999176,154.002213 90.008789,154.014191 
z"/>
<path fill="#5C5148" opacity="1.000000" stroke="none" 
	d="
M121.270584,146.157959 
	C121.685249,144.603897 122.325417,143.203033 123.073135,141.494202 
	C123.556145,141.159698 123.931587,141.133148 124.588867,141.107574 
	C124.633881,142.502991 124.397049,143.897430 124.101517,145.644150 
	C123.244560,146.511276 122.424759,146.851791 121.270584,146.157959 
z"/>
<path fill="#201A15" opacity="1.000000" stroke="none" 
	d="
M127.337891,33.726585 
	C127.428757,33.557129 127.611130,33.579426 127.854340,33.844471 
	C127.757774,33.940754 127.595856,33.884460 127.337891,33.726585 
z"/>
<path fill="#C57E6C" opacity="1.000000" stroke="none" 
	d="
M148.166870,38.373322 
	C147.108261,37.850746 146.285629,37.665176 145.196411,37.303848 
	C142.105637,30.859344 136.707169,29.385849 130.178131,29.269127 
	C129.270935,29.090542 128.701080,29.032713 127.845146,28.989342 
	C125.776871,28.224531 126.592407,27.071426 127.378044,26.300037 
	C129.531494,24.185654 131.184540,21.492567 134.494446,20.077675 
	C140.753448,16.301006 144.280182,16.833235 148.718002,22.343870 
	C150.324005,26.514380 152.123398,30.283369 149.355072,34.652985 
	C149.014526,35.738220 148.944580,36.487812 148.838470,37.614204 
	C148.669128,38.230782 148.535980,38.470554 148.166870,38.373322 
z"/>
<path fill="#201A15" opacity="1.000000" stroke="none" 
	d="
M148.293549,23.237959 
	C144.061554,17.961349 141.972885,17.551340 135.321167,20.790695 
	C134.566467,20.480169 134.383026,19.905117 134.688690,18.854080 
	C140.876785,14.634236 146.745804,16.160131 149.969971,22.678780 
	C149.658798,23.384693 149.173645,23.529240 148.293549,23.237959 
z"/>
<path fill="#312920" opacity="1.000000" stroke="none" 
	d="
M148.004059,23.404224 
	C148.433273,23.021978 148.902756,23.023041 149.725525,23.022741 
	C152.310593,26.989077 153.689331,30.934511 149.428680,34.865189 
	C149.631058,31.171980 149.644791,27.404814 148.004059,23.404224 
z"/>
<path fill="#151210" opacity="1.000000" stroke="none" 
	d="
M134.588287,18.582985 
	C134.942596,19.016363 134.950119,19.577200 134.975159,20.557899 
	C132.606796,23.459290 129.274796,25.049229 127.734703,28.748554 
	C127.321503,29.072403 127.083954,29.141006 126.478546,29.162289 
	C126.076401,23.502016 130.339615,21.247419 134.588287,18.582985 
z"/>
<path fill="#483728" opacity="1.000000" stroke="none" 
	d="
M148.276947,40.730934 
	C148.101242,40.558708 148.066620,40.139839 148.027802,39.405716 
	C148.144516,38.906803 148.265442,38.723148 148.671326,38.705650 
	C148.776840,39.409302 148.597427,39.946796 148.276947,40.730934 
z"/>
<path fill="#C27B68" opacity="1.000000" stroke="none" 
	d="
M148.933624,38.648830 
	C148.956238,38.871803 148.493378,38.996880 148.258484,39.043671 
	C148.010498,38.914307 147.997406,38.738148 147.957611,38.299152 
	C147.930908,38.036320 148.366562,38.008064 148.584427,37.999535 
	C148.802292,37.991005 148.911011,38.425858 148.933624,38.648830 
z"/>
<path fill="#C27B68" opacity="1.000000" stroke="none" 
	d="
M130.123901,29.353170 
	C134.208725,28.286844 138.501678,25.699961 142.804428,29.914211 
	C144.857071,31.924620 145.803925,33.711609 144.976654,36.765739 
	C140.088898,34.604717 135.247971,32.081345 130.123901,29.353170 
z"/>
<path fill="#706156" opacity="1.000000" stroke="none" 
	d="
M94.032181,69.431885 
	C94.541267,68.725914 95.009949,68.396065 95.714439,67.902664 
	C96.494759,67.469193 97.045105,67.214226 97.946976,67.025925 
	C99.837135,66.394875 101.379074,65.742920 102.772491,64.230804 
	C105.487442,62.919514 106.972359,59.326283 110.891548,61.051407 
	C113.877167,60.234238 116.315521,58.274551 119.680542,59.695347 
	C123.711304,59.737934 127.489021,60.744446 131.531311,59.365715 
	C135.975571,59.351391 138.472397,62.948311 142.494888,64.191566 
	C155.130035,75.068756 160.704376,88.233299 157.248566,104.641609 
	C155.627274,112.339531 151.842819,118.818687 146.149353,124.628464 
	C142.105560,131.302505 135.440872,133.053452 128.948868,134.842163 
	C126.667480,135.470764 124.154015,136.146530 121.321678,135.239197 
	C120.543930,134.971481 120.093826,134.949112 119.310440,134.988647 
	C113.156784,135.826401 107.953568,134.076859 102.704880,130.970673 
	C100.350464,130.280136 98.843330,129.018677 97.279297,127.201294 
	C97.032715,126.923386 97.019882,126.984993 97.046799,126.968689 
	C93.883766,125.758606 92.268318,122.858643 89.818466,120.357140 
	C88.918411,119.782028 88.300545,119.408188 87.774544,118.427582 
	C87.049835,114.873589 84.884605,112.135193 84.980743,108.372437 
	C83.313469,102.027649 83.741142,95.939461 84.044510,89.439636 
	C85.034386,87.211929 86.005531,85.404129 87.053787,83.250336 
	C88.085907,80.269165 89.042641,77.634819 90.991829,75.102692 
	C91.383263,74.519073 91.544434,74.200409 91.805649,73.633286 
	C92.438995,73.228378 92.894585,72.964752 93.280334,72.212479 
	C93.586189,71.244164 93.788986,70.526093 94.032181,69.431885 
z"/>
<path fill="#181511" opacity="1.000000" stroke="none" 
	d="
M121.176636,135.304077 
	C130.134598,134.271622 138.441025,131.477158 145.651611,125.046509 
	C145.978500,125.401260 145.996353,125.902161 146.031769,126.781235 
	C140.045471,133.969254 131.890411,135.768082 123.429474,136.760406 
	C122.792961,136.835068 122.051773,136.017227 121.176636,135.304077 
z"/>
<path fill="#181511" opacity="1.000000" stroke="none" 
	d="
M101.683899,130.377686 
	C107.249039,132.233170 112.362450,134.777924 118.578049,135.003296 
	C114.591103,138.309494 110.671257,134.613373 106.561989,134.093384 
	C105.081528,133.906052 103.751595,132.529160 102.124512,131.436813 
	C101.720398,130.987732 101.544739,130.796951 101.683899,130.377686 
z"/>
<path fill="#191613" opacity="1.000000" stroke="none" 
	d="
M89.808167,120.007477 
	C92.980957,121.240074 94.599976,124.098808 96.961319,126.634148 
	C94.143166,127.135506 92.608253,124.806557 90.306595,123.165451 
	C89.917557,122.587158 89.810806,122.193001 89.640457,121.499146 
	C89.560539,120.911789 89.544220,120.624130 89.808167,120.007477 
z"/>
<path fill="#191613" opacity="1.000000" stroke="none" 
	d="
M101.741180,129.940094 
	C101.984406,130.320297 101.970078,130.491364 101.925903,130.920456 
	C99.758614,130.734619 97.887161,129.941849 97.115723,127.260361 
	C98.516350,127.859245 99.999992,128.795105 101.741180,129.940094 
z"/>
<path fill="#25211C" opacity="1.000000" stroke="none" 
	d="
M84.737434,107.990417 
	C86.477196,111.060661 87.879921,114.132080 89.371796,117.573128 
	C88.734123,118.736023 87.856178,118.825623 86.512283,118.212593 
	C84.778038,114.984306 83.683960,111.952179 83.091446,108.362701 
	C83.502762,107.985100 83.951584,107.988350 84.737434,107.990417 
z"/>
<path fill="#2B2925" opacity="1.000000" stroke="none" 
	d="
M86.209587,118.248611 
	C86.965126,117.941193 87.793747,117.952507 89.041656,117.953293 
	C89.671074,118.360344 89.881203,118.777924 90.089874,119.436996 
	C90.009239,119.933243 89.930061,120.188004 89.713875,120.821106 
	C88.088539,120.810509 86.747543,120.237183 86.209587,118.248611 
z"/>
<path fill="#986B56" opacity="1.000000" stroke="none" 
	d="
M55.173393,105.122116 
	C55.652176,103.887901 55.834972,102.833374 56.036560,101.456711 
	C56.080227,100.682617 56.284424,100.336411 56.804737,99.804276 
	C58.845161,96.963737 60.937832,98.639458 62.600471,99.586052 
	C69.911812,103.748680 70.923065,114.046539 64.406876,120.009338 
	C61.165188,118.309959 63.503994,116.140152 63.724670,113.771935 
	C64.256912,111.603607 63.974987,109.909447 62.770180,108.048965 
	C61.891109,105.975883 60.996098,104.741745 59.000854,106.458717 
	C57.725685,107.556046 56.378433,107.794807 54.851807,106.281288 
	C54.758045,105.747749 54.817730,105.524773 55.173393,105.122116 
z"/>
<path fill="#845F4F" opacity="1.000000" stroke="none" 
	d="
M60.258209,121.611298 
	C58.737591,123.034012 57.197418,122.962242 55.273136,122.790298 
	C52.685631,120.770744 53.760853,118.374748 54.051243,115.702888 
	C54.796799,112.918861 53.824646,109.616646 58.028378,108.860611 
	C58.908047,108.589890 59.424137,108.545990 60.320400,108.655746 
	C60.918034,108.822311 61.142918,108.924530 61.633812,109.275757 
	C62.777431,110.821159 62.167755,112.177467 62.081848,113.836739 
	C62.168907,114.594849 62.242771,115.028374 62.355885,115.800369 
	C62.379612,117.082901 62.015762,117.961159 61.844090,119.244232 
	C61.587109,120.343849 61.079308,120.868423 60.258209,121.611298 
z"/>
<path fill="#B07462" opacity="1.000000" stroke="none" 
	d="
M60.326057,121.851227 
	C59.960484,121.154732 59.934425,120.449783 59.910698,119.391968 
	C61.499649,117.590988 61.949047,115.999710 60.505623,113.814697 
	C60.831470,112.496635 61.577049,111.869324 62.688198,111.140549 
	C64.220985,110.964317 64.870125,111.763214 65.813210,112.795563 
	C65.440369,115.167984 64.793343,117.274025 64.109299,119.750755 
	C63.271629,121.358063 62.179806,122.018417 60.326057,121.851227 
z"/>
<path fill="#836654" opacity="1.000000" stroke="none" 
	d="
M50.154968,102.808075 
	C50.506050,106.026047 51.585823,109.136711 46.493954,109.124702 
	C47.167374,106.734238 46.515995,103.686844 49.552010,101.944054 
	C50.027409,101.979134 50.202854,102.208221 50.154968,102.808075 
z"/>
<path fill="#C27B68" opacity="1.000000" stroke="none" 
	d="
M56.081444,114.541367 
	C55.917927,117.111053 55.398071,119.505547 54.885727,122.304092 
	C54.174637,122.701515 53.456036,122.694878 52.392723,122.585373 
	C52.016132,121.532562 51.984257,120.582619 51.945824,119.276199 
	C51.609734,118.479362 51.479511,117.986252 51.687973,117.070740 
	C52.899277,115.542412 53.906979,114.277916 56.081444,114.541367 
z"/>
<path fill="#AA7963" opacity="1.000000" stroke="none" 
	d="
M56.552982,99.563332 
	C56.752190,99.876740 56.562843,100.240921 56.214417,100.869843 
	C54.942345,101.067245 53.829350,100.999908 52.302155,100.885742 
	C52.994118,99.315689 54.739845,100.025528 56.552982,99.563332 
z"/>
<path fill="#AA7963" opacity="1.000000" stroke="none" 
	d="
M50.213043,102.995476 
	C49.909641,102.941277 49.887646,102.703712 49.858803,102.108101 
	C50.267036,101.363129 50.682117,100.976204 51.399208,100.563065 
	C51.298962,101.295265 50.896706,102.053688 50.213043,102.995476 
z"/>
<path fill="#443E38" opacity="1.000000" stroke="none" 
	d="
M51.700329,54.213280 
	C51.198910,53.828636 50.986588,53.317337 52.139046,53.548767 
	C52.164833,53.805271 52.034519,53.924603 51.700329,54.213280 
z"/>
<path fill="#BEB6A9" opacity="1.000000" stroke="none" 
	d="
M120.000778,59.639954 
	C117.252342,60.311523 114.538559,60.707188 111.524132,61.117722 
	C113.365768,58.238201 116.417801,57.960331 119.879684,58.507614 
	C120.084297,58.996529 120.059868,59.180290 120.000778,59.639954 
z"/>
<path fill="#A99F8D" opacity="1.000000" stroke="none" 
	d="
M102.640701,64.013474 
	C102.341476,66.631287 100.462952,67.707031 97.575470,68.125977 
	C97.055405,67.646095 96.763298,67.074738 96.878464,66.252167 
	C99.209610,66.303856 100.314926,64.063118 102.640701,64.013474 
z"/>
<path fill="#38342F" opacity="1.000000" stroke="none" 
	d="
M96.843262,66.031006 
	C97.248466,66.627670 97.373512,67.204086 97.346718,68.022629 
	C96.866859,68.114258 96.538849,67.963760 96.080536,67.776184 
	C95.956512,67.352821 95.962776,66.966537 95.985214,66.290840 
	C96.188614,66.004547 96.375854,66.007660 96.843262,66.031006 
z"/>
<path fill="#986B56" opacity="1.000000" stroke="none" 
	d="
M51.376316,116.008743 
	C50.544136,116.028168 50.093388,116.024521 49.303833,116.017860 
	C49.804840,114.440811 50.104549,112.564903 52.222260,111.210251 
	C54.521286,112.095467 54.736176,113.447998 53.512753,115.329895 
	C52.763237,115.812492 52.272598,115.944244 51.376316,116.008743 
z"/>
<path fill="#61554B" opacity="1.000000" stroke="none" 
	d="
M53.624916,108.964508 
	C53.198151,108.170059 53.396484,107.340172 54.038475,106.501846 
	C55.037418,107.365601 54.940453,108.175613 53.624916,108.964508 
z"/>
<path fill="#61554B" opacity="1.000000" stroke="none" 
	d="
M52.071083,110.952042 
	C52.271297,110.415543 52.441582,109.900642 52.805840,109.192841 
	C52.999817,108.999954 53.017193,109.011497 53.025879,109.017319 
	C53.619804,109.786697 53.476624,110.456573 52.383385,110.985855 
	C51.993462,110.917290 52.041153,110.973633 52.071083,110.952042 
z"/>
<path fill="#61554B" opacity="1.000000" stroke="none" 
	d="
M55.177544,105.051247 
	C55.397400,105.121605 55.325424,105.300774 55.172375,105.757973 
	C54.928635,106.149651 54.765976,106.263283 54.342957,106.232697 
	C54.082600,106.088470 54.047344,106.050804 54.029831,106.032066 
	C54.303452,105.728905 54.594582,105.444481 55.177544,105.051247 
z"/>
<path fill="#986B56" opacity="1.000000" stroke="none" 
	d="
M47.958149,117.024017 
	C48.018845,117.075058 48.020744,117.266373 48.016064,117.745018 
	C47.858063,117.755211 47.821350,117.465866 47.958149,117.024017 
z"/>
<path fill="#A79A7A" opacity="1.000000" stroke="none" 
	d="
M90.867645,74.886818 
	C91.059860,77.871284 89.425484,80.234123 87.417915,82.731026 
	C85.733673,81.187134 86.972626,79.918640 87.956345,78.289337 
	C88.047630,77.987503 88.267677,77.961525 88.310669,77.859390 
	C89.073509,76.816803 89.793358,75.876350 90.867645,74.886818 
z"/>
<path fill="#38342F" opacity="1.000000" stroke="none" 
	d="
M93.204605,72.066742 
	C93.004463,72.359039 92.625549,72.755844 92.076157,73.268723 
	C92.279060,72.980286 92.652443,72.575768 93.204605,72.066742 
z"/>
<path fill="#A56E5A" opacity="1.000000" stroke="none" 
	d="
M51.032669,116.338715 
	C51.199135,115.785141 51.417084,115.551224 51.827019,115.169937 
	C52.406727,115.390198 52.557678,115.852379 52.239414,116.713730 
	C52.005383,117.451637 51.990101,117.872192 51.957047,118.606232 
	C51.649666,118.161690 51.360058,117.403656 51.032669,116.338715 
z"/>
<path fill="#14120F" opacity="1.000000" stroke="none" 
	d="
M144.412689,94.757431 
	C144.329697,99.883156 141.365112,103.250298 137.853241,106.634995 
	C133.463257,109.454254 132.981384,104.836609 130.657898,103.609138 
	C130.175049,103.942261 129.966370,104.203773 129.747116,104.787491 
	C130.130051,107.566101 129.309280,109.750534 127.801392,112.082993 
	C125.643654,113.369652 123.517624,113.446312 121.096817,113.851089 
	C120.532784,114.062904 120.308357,114.144905 119.739616,114.310417 
	C117.915482,114.827026 116.790031,113.790375 115.167862,113.407585 
	C114.403915,113.318657 113.966957,113.291077 113.203049,113.293350 
	C111.788391,113.492882 110.706161,113.375626 109.299744,113.278450 
	C108.057327,113.434364 107.139534,113.549728 106.003868,113.476517 
	C104.992401,111.580566 103.601242,110.185966 102.998428,108.014313 
	C102.475471,107.172203 102.127914,106.602867 101.864342,105.609970 
	C101.514191,104.317390 101.519165,103.355560 101.826775,102.035187 
	C103.667931,99.730179 106.467705,100.138680 108.701096,98.431091 
	C112.302505,97.887329 115.662216,98.791428 119.232178,97.450478 
	C119.712502,96.790642 120.025833,96.550018 120.773026,96.766617 
	C126.150772,96.290146 130.515610,93.771141 134.898972,91.285515 
	C137.628159,89.737900 140.377945,87.963287 143.364273,91.432159 
	C143.455872,92.755363 143.525513,93.721786 144.412689,94.757431 
z"/>
<path fill="#C14627" opacity="1.000000" stroke="none" 
	d="
M114.846466,111.270058 
	C116.096565,111.694954 117.095291,112.311516 118.300079,113.141434 
	C121.097702,118.406998 120.639290,123.432098 117.982147,128.709442 
	C117.393158,129.073730 117.233116,129.214249 117.046814,129.546722 
	C111.276375,130.021973 110.689827,129.430161 109.416016,121.806305 
	C108.940300,119.374847 108.727386,117.354141 109.728867,114.991631 
	C109.708557,114.281799 109.473610,113.955009 109.106888,113.473602 
	C110.065620,112.641998 111.156128,111.965004 112.552597,111.201042 
	C113.380638,111.513512 113.937103,111.741196 114.846466,111.270058 
z"/>
<path fill="#1B1814" opacity="1.000000" stroke="none" 
	d="
M127.756859,100.317497 
	C129.696274,99.736458 131.462845,99.147842 133.211487,99.196953 
	C135.284698,99.255173 137.509201,99.950386 135.705261,102.742622 
	C134.326721,104.876411 135.662201,105.637352 137.300446,106.679367 
	C136.232834,109.964439 132.864395,109.854645 130.181961,111.470001 
	C129.089325,112.468536 128.247284,112.298805 127.210114,111.404663 
	C128.241745,108.531113 125.750565,106.741997 125.709793,104.250977 
	C126.760094,103.072311 126.642448,101.566246 127.756859,100.317497 
z"/>
<path fill="#28221B" opacity="1.000000" stroke="none" 
	d="
M112.279068,83.106392 
	C109.604950,83.193832 107.160461,82.938354 106.631287,80.042381 
	C106.156471,77.443863 107.804337,75.638123 109.876839,74.412300 
	C113.747795,72.122749 117.781143,70.268738 122.870499,71.343063 
	C123.330727,71.724579 123.415565,71.963875 123.600693,72.569427 
	C122.663315,76.449432 118.899704,75.909081 116.409210,77.836365 
	C115.681046,78.378876 115.217339,78.741394 114.639862,79.362640 
	C114.454453,79.540779 114.083824,79.874367 113.893440,80.028412 
	C113.703056,80.182457 113.454933,80.607674 113.415039,80.856049 
	C113.368652,81.457054 113.315674,81.803116 113.093750,82.388184 
	C112.818909,82.754768 112.678406,82.877449 112.279068,83.106392 
z"/>
<path fill="#25211C" opacity="1.000000" stroke="none" 
	d="
M105.808228,105.770462 
	C106.987381,108.253281 106.375603,110.475334 105.885117,112.991890 
	C101.915665,112.940292 99.110497,110.973488 97.121429,107.308830 
	C97.328896,104.481567 99.053444,102.992493 101.219162,101.466782 
	C101.850922,101.430824 102.104843,101.475853 102.656631,101.767670 
	C103.186111,102.835258 103.417725,103.656059 103.819672,104.749512 
	C104.598251,105.020103 105.192169,105.068863 105.808228,105.770462 
z"/>
<path fill="#14120F" opacity="1.000000" stroke="none" 
	d="
M102.292168,101.761032 
	C101.441170,104.418716 99.764565,105.766502 97.338699,106.833221 
	C95.945839,101.910103 97.291351,99.594406 102.623215,98.070938 
	C104.130119,99.421112 103.626205,100.488770 102.292168,101.761032 
z"/>
<path fill="#34302B" opacity="1.000000" stroke="none" 
	d="
M121.058861,96.534424 
	C120.702065,97.042496 120.372902,97.107841 119.796875,97.208145 
	C118.002647,93.047714 119.126663,88.246109 116.324760,84.000473 
	C115.976547,83.459381 115.909973,83.189301 116.104691,82.593765 
	C117.413795,81.604927 118.453064,81.613281 119.732193,82.643837 
	C120.349335,87.350403 120.717911,91.721062 121.058861,96.534424 
z"/>
<path fill="#4A2C1A" opacity="1.000000" stroke="none" 
	d="
M117.988831,128.899902 
	C119.586273,124.177643 119.460396,119.227890 118.569778,113.791718 
	C118.772202,113.341095 119.038269,113.327415 119.703850,113.304016 
	C120.504585,113.495094 120.785858,113.807823 120.983459,114.542198 
	C121.013306,118.093773 121.126213,121.324051 120.994034,124.544273 
	C120.920258,126.341492 120.337761,128.059158 117.988831,128.899902 
z"/>
<path fill="#35251A" opacity="1.000000" stroke="none" 
	d="
M122.939789,73.170151 
	C123.033218,72.603409 123.072235,72.379845 123.178574,71.820786 
	C125.496170,72.100586 127.854958,72.733948 127.988564,75.615089 
	C128.116669,78.377869 126.569626,80.181915 123.709969,81.290390 
	C123.140228,81.319077 122.916367,81.253784 122.403938,80.990623 
	C120.290703,78.146118 122.833794,75.961502 122.939789,73.170151 
z"/>
<path fill="#35251A" opacity="1.000000" stroke="none" 
	d="
M109.672684,121.727936 
	C111.035431,125.364029 111.399521,129.295135 116.634827,129.637329 
	C111.862587,132.088821 109.782646,130.393219 108.380112,122.254562 
	C108.666992,121.735680 108.957947,121.647697 109.672684,121.727936 
z"/>
<path fill="#A79A7A" opacity="1.000000" stroke="none" 
	d="
M121.405914,114.876366 
	C120.775139,114.476425 120.547447,114.085152 120.211563,113.494095 
	C122.458389,113.605644 124.203117,111.706764 126.720894,111.331039 
	C127.791130,111.264153 128.568756,111.414024 129.640457,111.633743 
	C128.000565,114.742302 124.749527,114.417137 121.405914,114.876366 
z"/>
<path fill="#181511" opacity="1.000000" stroke="none" 
	d="
M102.252365,102.029938 
	C102.291458,100.955605 102.564575,99.875031 102.913666,98.469688 
	C104.714432,98.086082 106.439217,98.027245 108.585014,98.074707 
	C108.474892,101.182541 106.049263,101.502289 103.327065,101.972031 
	C102.954498,102.014450 102.486382,102.023689 102.252365,102.029938 
z"/>
<path fill="#483728" opacity="1.000000" stroke="none" 
	d="
M110.094467,121.452301 
	C109.810181,121.889633 109.523895,121.883118 108.806824,121.850128 
	C108.037506,119.465172 107.078766,117.024384 109.612396,114.805878 
	C109.993156,116.741882 110.042816,118.875168 110.094467,121.452301 
z"/>
<path fill="#35251A" opacity="1.000000" stroke="none" 
	d="
M120.290535,82.914169 
	C118.937469,82.982491 117.894180,82.985237 116.459839,82.983383 
	C115.440247,83.253761 115.001999,83.067879 114.836479,82.011429 
	C116.953232,79.923454 118.898903,77.925606 122.148956,80.157799 
	C122.616501,80.614349 122.765892,80.767555 123.139694,81.152565 
	C122.442833,81.872444 121.521576,82.360519 120.290535,82.914169 
z"/>
<path fill="#25211C" opacity="1.000000" stroke="none" 
	d="
M144.667358,94.752373 
	C143.140839,94.599243 142.165573,93.946762 143.301910,92.008507 
	C144.380173,92.466255 144.865097,93.350838 144.667358,94.752373 
z"/>
<path fill="#483728" opacity="1.000000" stroke="none" 
	d="
M114.680870,81.901077 
	C115.224937,82.403427 115.459587,82.576042 115.884560,82.859581 
	C116.068787,82.978798 116.053825,83.354858 116.048477,83.542160 
	C114.902031,83.668182 113.760948,83.606895 112.320053,83.379128 
	C112.020241,83.212646 111.979897,82.729851 111.985107,82.487671 
	C112.593124,81.349831 113.426430,81.276375 114.680870,81.901077 
z"/>
<path fill="#AE715D" opacity="1.000000" stroke="none" 
	d="
M52.362095,116.961594 
	C52.015366,116.581726 52.010071,116.132370 52.005043,115.346413 
	C52.769337,113.884399 52.717548,112.708336 52.108166,111.211037 
	C52.290993,110.461952 52.588528,110.006615 52.960312,109.287201 
	C53.373859,108.257172 53.713158,107.491211 54.067528,106.406860 
	C54.251427,106.095314 54.420258,106.102150 54.840195,106.072502 
	C55.822693,105.730530 56.737286,105.608383 57.256012,105.090065 
	C60.864025,101.484909 61.379944,101.559624 63.954460,106.656601 
	C64.931412,107.740364 65.874886,108.507896 64.515030,110.053513 
	C63.377083,110.719398 62.492085,111.028648 61.284435,110.225662 
	C61.017796,109.984985 61.001221,109.999390 61.007168,109.991791 
	C60.577648,109.475349 60.043736,109.341026 59.208767,109.782028 
	C57.194122,110.869492 56.389229,112.295120 56.529160,114.505875 
	C55.193031,115.441750 53.948280,116.166924 52.362095,116.961594 
z"/>
<path fill="#B77762" opacity="1.000000" stroke="none" 
	d="
M63.828327,109.256775 
	C64.014687,108.414017 63.977230,107.832420 63.981556,107.107155 
	C67.685471,107.599419 65.775330,110.391373 66.091675,112.691071 
	C65.226227,112.790154 64.365051,112.518356 63.192692,112.116974 
	C62.346588,110.937065 63.239967,110.304916 63.828327,109.256775 
z"/>
<path fill="#986B56" opacity="1.000000" stroke="none" 
	d="
M63.754288,109.115814 
	C63.765797,109.803452 63.479450,110.611290 63.037308,111.703262 
	C62.351620,112.496933 61.821728,113.006477 60.952587,113.968445 
	C60.249718,114.570160 59.878105,114.593781 59.296398,114.287094 
	C59.658607,112.919487 60.222927,111.756516 60.902519,110.289261 
	C61.830677,109.735329 62.643555,109.485672 63.754288,109.115814 
z"/>
<path fill="#986B56" opacity="1.000000" stroke="none" 
	d="
M59.336876,109.996216 
	C58.054417,109.437225 57.201656,108.628799 58.536167,107.839821 
	C59.937298,107.011459 60.541374,108.191406 60.955856,109.684494 
	C60.566086,109.987053 60.119061,109.989899 59.336876,109.996216 
z"/>
<path fill="#B77762" opacity="1.000000" stroke="none" 
	d="
M60.987732,113.982376 
	C63.486660,115.842758 62.122318,117.308220 60.198635,118.892212 
	C60.137489,118.278419 60.361958,117.517738 60.734230,116.497391 
	C60.559460,115.761711 60.443726,115.239830 60.758656,114.324593 
	C60.982441,113.977112 60.997242,113.988579 60.987732,113.982376 
z"/>
<path fill="#B07462" opacity="1.000000" stroke="none" 
	d="
M60.667305,113.991753 
	C60.966316,114.478401 60.950191,114.979698 60.908051,115.859360 
	C59.996681,115.948227 58.813507,115.996025 59.026443,114.310959 
	C59.513580,114.057106 59.932880,114.031754 60.667305,113.991753 
z"/>
<path fill="#B07462" opacity="1.000000" stroke="none" 
	d="
M57.453335,118.008560 
	C57.455666,117.961823 57.451004,118.055305 57.453335,118.008560 
z"/>
<path fill="#1D1A17" opacity="1.000000" stroke="none" 
	d="
M111.245758,104.844696 
	C110.251587,102.359528 110.960518,100.915558 113.281540,100.668144 
	C115.434250,100.438675 117.642677,100.604889 118.768021,102.938545 
	C119.426025,104.303078 119.038689,105.430855 117.695282,106.288239 
	C115.203697,107.878410 113.084923,107.773491 111.245758,104.844696 
z"/>
<path fill="#4A2C1A" opacity="1.000000" stroke="none" 
	d="
M114.724739,111.036621 
	C115.097839,113.090836 115.097839,115.103287 115.097839,117.709618 
	C112.641655,115.769211 113.657822,113.597496 112.942818,111.506912 
	C113.356255,111.074341 113.853943,111.034599 114.724739,111.036621 
z"/>
<path fill="#181511" opacity="1.000000" stroke="none" 
	d="
M106.020775,105.841888 
	C105.438370,105.809944 104.939194,105.576996 104.215012,105.183090 
	C104.885017,104.578087 105.919312,103.658119 106.020775,105.841888 
z"/>
<path fill="#34302B" opacity="1.000000" stroke="none" 
	d="
M127.674225,100.239227 
	C127.872330,101.439156 127.284904,102.601112 126.083679,103.824707 
	C126.103043,102.732590 126.325951,101.395195 127.674225,100.239227 
z"/>
<path fill="#1D1A17" opacity="1.000000" stroke="none" 
	d="
M118.495842,108.503799 
	C118.489716,108.484695 118.501968,108.522911 118.495842,108.503799 
z"/>
<path fill="#DF6933" opacity="1.000000" stroke="none" 
	d="
M115.383873,82.142303 
	C114.244041,82.201927 113.491699,82.181328 112.364838,82.203110 
	C111.468925,81.980713 110.947517,81.715935 110.287766,81.192612 
	C109.975372,80.056572 110.239494,79.257584 110.731285,78.189178 
	C110.872467,77.904259 110.910660,77.930161 110.907394,77.907356 
	C111.796600,77.393936 112.806366,77.106148 113.704750,76.090965 
	C116.644165,74.836037 119.427299,73.845627 122.602318,72.841095 
	C127.097664,75.219826 125.371864,77.572769 122.706375,80.191040 
	C120.268700,81.134933 118.168465,82.219322 115.383873,82.142303 
z"/>
<path fill="#DF6B38" opacity="1.000000" stroke="none" 
	d="
M113.545898,75.870468 
	C113.491264,76.947975 112.762634,77.654259 111.232788,77.849152 
	C111.324219,76.808067 112.091530,76.141655 113.545898,75.870468 
z"/>
<path fill="#DF6B38" opacity="1.000000" stroke="none" 
	d="
M110.579895,78.028275 
	C110.725639,78.726059 110.578804,79.547867 110.290695,80.651855 
	C107.986221,79.897293 109.477570,79.041687 110.579895,78.028275 
z"/>
<path fill="#14120F" opacity="1.000000" stroke="none" 
	d="
M116.503395,102.491913 
	C116.510651,102.512695 116.496140,102.471123 116.503395,102.491913 
z"/>
<path fill="#DF6B38" opacity="1.000000" stroke="none" 
	d="
M116.500336,80.504944 
	C116.494713,80.486679 116.505959,80.523216 116.500336,80.504944 
z"/>
</svg>